HIERARCHY
ROOT Hips
{
	OFFSET 53.336601 -4.827735 91.603798
	CHANNELS 6 Xposition Yposition Zposition Xrotation Yrotation Zrotation
	JOINT spine
	{
		OFFSET 0.000000 -0.393702 6.846367
		CHANNELS 3 Xrotation Yrotation Zrotation
		JOINT spine1
		{
			OFFSET 0.000000 -0.000001 9.496208
			CHANNELS 3 Xrotation Yrotation Zrotation
			JOINT spine2
			{
				OFFSET 0.000000 -0.000001 9.099091
				CHANNELS 3 Xrotation Yrotation Zrotation
				JOINT Neck
				{
					OFFSET 0.000000 -1.113784 23.361198
					CHANNELS 3 Xrotation Yrotation Zrotation
					JOINT Head
					{
						OFFSET 0.000000 -0.000001 7.058014
						CHANNELS 3 Xrotation Yrotation Zrotation
						End Site
						{
							OFFSET 0.000000 5.634187 17.084396
						}
					}
				}
				JOINT RightShoulder
				{
					OFFSET -3.831360 0.533490 9.826309
					CHANNELS 3 Xrotation Yrotation Zrotation
					JOINT RightArm
					{
						OFFSET 0.000000 -0.000002 12.888100
						CHANNELS 3 Xrotation Yrotation Zrotation
						JOINT RightArmRoll
						{
							OFFSET 0.000000 -0.000001 6.506165
							CHANNELS 3 Xrotation Yrotation Zrotation
							JOINT RightForeArm
							{
								OFFSET 0.000000 -0.000003 18.950104
								CHANNELS 3 Xrotation Yrotation Zrotation
								JOINT RightForeArmRoll
								{
									OFFSET 0.000000 -0.000001 7.300934
									CHANNELS 3 Xrotation Yrotation Zrotation
									JOINT RightHand
									{
										OFFSET 0.000000 -0.000002 14.651398
										CHANNELS 3 Xrotation Yrotation Zrotation
										End Site
										{
											OFFSET 0.000000 0.000000 0.100006
										}
									}
								}
							}
						}
					}
				}
				JOINT LeftShoulder
				{
					OFFSET 3.831360 0.533490 9.826309
					CHANNELS 3 Xrotation Yrotation Zrotation
					JOINT LeftArm
					{
						OFFSET 0.000000 -0.000002 12.888100
						CHANNELS 3 Xrotation Yrotation Zrotation
						JOINT LeftArmRoll
						{
							OFFSET 0.000000 -0.000001 6.506165
							CHANNELS 3 Xrotation Yrotation Zrotation
							JOINT LeftForeArm
							{
								OFFSET 0.000000 -0.000003 18.950104
								CHANNELS 3 Xrotation Yrotation Zrotation
								JOINT LeftForeArmRoll
								{
									OFFSET 0.000000 -0.000001 7.300934
									CHANNELS 3 Xrotation Yrotation Zrotation
									JOINT LeftHand
									{
										OFFSET 0.000000 -0.000002 14.651398
										CHANNELS 3 Xrotation Yrotation Zrotation
										End Site
										{
											OFFSET 0.000000 0.000000 0.100006
										}
									}
								}
							}
						}
					}
				}
			}
		}
	}
	JOINT RightUpLeg
	{
		OFFSET -6.068371 0.933477 -1.112778
		CHANNELS 3 Xrotation Yrotation Zrotation
		JOINT RightUpLegRoll
		{
			OFFSET 0.000000 -0.000003 17.179604
			CHANNELS 3 Xrotation Yrotation Zrotation
			JOINT RightLeg
			{
				OFFSET 0.000000 0.000004 -21.274300
				CHANNELS 3 Xrotation Yrotation Zrotation
				JOINT RightLegRoll
				{
					OFFSET 0.000000 -0.000004 21.343903
					CHANNELS 3 Xrotation Yrotation Zrotation
					JOINT RightFoot
					{
						OFFSET 0.000000 -0.000003 17.765198
						CHANNELS 3 Xrotation Yrotation Zrotation
						JOINT RightToeBase
						{
							OFFSET 0.000000 -0.000002 14.850807
							CHANNELS 3 Xrotation Yrotation Zrotation
							End Site
							{
								OFFSET 0.006294 0.829004 7.192139
							}
						}
					}
				}
			}
		}
	}
	JOINT LeftUpLeg
	{
		OFFSET 6.068371 0.933477 -1.112778
		CHANNELS 3 Xrotation Yrotation Zrotation
		JOINT LeftUpLegRoll
		{
			OFFSET 0.000000 -0.000003 17.179703
			CHANNELS 3 Xrotation Yrotation Zrotation
			JOINT LeftLeg
			{
				OFFSET 0.000000 -0.000003 21.274193
				CHANNELS 3 Xrotation Yrotation Zrotation
				JOINT LeftLegRoll
				{
					OFFSET 0.000000 -0.000004 21.541199
					CHANNELS 3 Xrotation Yrotation Zrotation
					JOINT LeftFoot
					{
						OFFSET 0.000000 -0.000003 17.567902
						CHANNELS 3 Xrotation Yrotation Zrotation
						JOINT LeftToeBase
						{
							OFFSET 0.000000 -0.000002 14.850800
							CHANNELS 3 Xrotation Yrotation Zrotation
							End Site
							{
								OFFSET -0.028210 0.829004 7.192123
							}
						}
					}
				}
			}
		}
	}
}
MOTION
Frames: 4
Frame Time: 0.041667
56.073807 -6.740259 91.584206 -2.499835 -0.749976 -5.446363 -1.640131 -0.004985 -0.089489 0.722553 0.014027 -0.174169 2.367630 0.011940 -0.174322 24.392518 6.212933 -2.372395 -9.888928 -5.318047 -2.219317 20.747224 -71.877858 21.077906 2.188397 -101.032855 21.444707 -0.000000 -0.000000 -0.000006 15.826694 -7.749758 -0.280213 0.000002 -0.000002 -2.999990 -5.000242 -7.998998 0.000141 7.280557 68.614086 -6.970972 -16.918807 105.526566 -7.396145 0.000000 0.000014 0.000003 5.638986 11.210675 -0.114876 -0.000002 -0.000026 3.006949 -5.000228 7.998741 -0.000173 0.223136 -173.665046 2.572111 179.999991 -0.000005 -1.100992 175.680307 -2.621545 -0.198958 0.000002 -0.000005 0.041907 68.957808 6.905878 2.097261 25.456957 -7.355615 0.000009 4.058887 176.080815 0.256786 -0.000005 -0.000004 -1.168580 -4.211537 1.226749 0.152840 -0.000002 0.000003 -0.045404 69.019553 -6.919552 -2.044250 25.456957 7.355613 -0.000010 
56.049004 -6.730186 91.569794 -2.493467 -0.753447 -5.453149 -1.643420 -0.001418 -0.088742 0.715993 0.019549 -0.173752 2.361070 0.017467 -0.173970 24.459392 6.192612 -2.374985 -9.950082 -5.309267 -2.221393 20.925584 -71.921537 21.260229 2.210086 -100.947949 21.494619 -0.000000 0.000000 -0.000005 15.821851 -7.742058 -0.281353 -0.000000 -0.000002 -2.999989 -5.000241 -7.998998 0.000141 7.309421 68.629017 -7.000648 -17.021624 105.500359 -7.274403 -0.000000 0.000013 0.000004 5.640423 11.226277 -0.116486 -0.000004 -0.000026 3.006949 -5.000229 7.998742 -0.000173 0.213490 -173.662054 2.570337 179.999991 -0.000005 -1.100993 175.682929 -2.618557 -0.199610 0.000002 -0.000006 0.041906 68.958444 6.905879 2.097223 25.456953 -7.355616 0.000010 4.051628 176.087768 0.263243 -0.000005 -0.000005 -1.168580 -4.210004 1.224987 0.152839 -0.000003 0.000003 -0.045404 69.020701 -6.919508 -2.044268 25.456950 7.355613 -0.000010 
56.054405 -6.726057 91.572403 -2.487103 -0.757030 -5.459912 -1.646758 0.002309 -0.088017 0.709320 0.025333 -0.173420 2.354400 0.023254 -0.173708 24.528159 6.169919 -2.377414 -10.012823 -5.298487 -2.223364 21.112847 -71.967941 21.451474 2.234880 -100.860065 21.547809 0.000000 -0.000000 -0.000006 15.816830 -7.734861 -0.282392 -0.000001 -0.000002 -2.999990 -5.000244 -7.998998 0.000140 7.338365 68.644159 -7.030394 -17.122734 105.474035 -7.153670 0.000000 0.000013 0.000003 5.641901 11.242777 -0.118179 -0.000003 -0.000026 3.006949 -5.000228 7.998741 -0.000173 0.203892 -173.658038 2.568502 179.999991 -0.000004 -1.100995 175.685552 -2.616578 -0.199340 0.000002 -0.000005 0.041907 68.959058 6.905844 2.097277 25.456955 -7.355615 0.000010 4.044408 176.094721 0.269753 -0.000005 -0.000004 -1.168580 -4.208322 1.223344 0.152838 -0.000002 0.000003 -0.045403 69.021862 -6.919537 -2.044104 25.456957 7.355613 -0.000010 
56.054302 -6.721237 91.578705 -2.480740 -0.760692 -5.466655 -1.650139 0.006148 -0.087309 0.702567 0.031300 -0.173149 2.347651 0.029224 -0.173509 24.598254 6.145551 -2.379697 -10.076708 -5.286309 -2.225242 21.306726 -72.016149 21.649367 2.262024 -100.770193 21.603332 0.000000 -0.000000 -0.000004 15.811715 -7.727989 -0.283359 -0.000000 -0.000002 -2.999989 -5.000241 -7.998998 0.000141 7.367292 68.659295 -7.060111 -17.224929 105.445751 -7.031320 0.000000 0.000012 0.000001 5.643410 11.259873 -0.119927 -0.000003 -0.000026 3.006949 -5.000230 7.998741 -0.000171 0.194319 -173.655046 2.566624 179.999991 -0.000004 -1.100994 175.688175 -2.613590 -0.198995 0.000002 -0.000005 0.041906 68.959598 6.905874 2.097251 25.456952 -7.355614 0.000010 4.037228 176.101661 0.276297 -0.000005 -0.000004 -1.168580 -4.206538 1.221781 0.152837 -0.000003 0.000003 -0.045404 69.023023 -6.919529 -2.044129 25.456953 7.355613 -0.000010 
